<svg width="44" height="44" viewBox="0 0 44 44" fill="none" xmlns="http://www.w3.org/2000/svg">
<path d="M27.5791 36.1935C27.2521 35.9181 26.9893 35.5745 26.8091 35.1869C26.6288 34.7993 26.5354 34.377 26.5354 33.9495V31.7592C26.5341 31.001 26.8285 30.2723 27.356 29.7278C27.8834 29.1832 28.6024 28.8658 29.3602 28.8429C27.9453 27.3088 27.1604 25.2978 27.162 23.2109C27.162 20.5577 28.4072 18.1949 30.3326 16.6601V4.90509C30.3326 3.19789 28.9422 1.8075 27.235 1.8075H3.97748C2.27028 1.8075 0.879883 3.19789 0.879883 4.90509V38.5827C0.879883 40.2987 2.27028 41.6803 3.97748 41.6803H26.7343C26.6031 41.3446 26.5356 40.9874 26.5354 40.6269V38.4375C26.5354 37.5381 26.9428 36.7294 27.5791 36.1935ZM9.86468 37.4378C9.86468 37.6691 9.7728 37.8909 9.60926 38.0545C9.44571 38.218 9.22389 38.3099 8.9926 38.3099H6.39396C6.16443 38.3076 5.9451 38.2148 5.78361 38.0516C5.62213 37.8885 5.53155 37.6682 5.53156 37.4387V34.848C5.53132 34.6183 5.62179 34.3978 5.7833 34.2345C5.94481 34.0711 6.16428 33.9782 6.39396 33.9759H8.9926C9.47396 33.9759 9.86468 34.3666 9.86468 34.8471V37.4378ZM9.86468 30.0977C9.86445 30.3289 9.77247 30.5505 9.60894 30.7138C9.44542 30.8772 9.22374 30.9689 8.9926 30.9689H6.39396C6.16443 30.9666 5.9451 30.8738 5.78361 30.7107C5.62213 30.5475 5.53155 30.3273 5.53156 30.0977V27.4991C5.53156 27.0265 5.9214 26.6367 6.39396 26.6367H8.9926C9.22229 26.6364 9.44279 26.7269 9.60611 26.8884C9.76943 27.0499 9.86236 27.2694 9.86468 27.4991V30.0977ZM9.86468 22.748C9.86445 22.9791 9.77247 23.2007 9.60894 23.3641C9.44542 23.5274 9.22374 23.6192 8.9926 23.6192H6.39396C6.16443 23.6169 5.9451 23.524 5.78361 23.3609C5.62213 23.1978 5.53155 22.9775 5.53156 22.748V20.1581C5.53155 19.9286 5.62213 19.7083 5.78361 19.5452C5.9451 19.3821 6.16443 19.2893 6.39396 19.2869H8.9926C9.47396 19.2869 9.86468 19.6768 9.86468 20.1581V22.748ZM17.7688 37.4378C17.7691 37.6677 17.6785 37.8883 17.5168 38.0516C17.3551 38.215 17.1354 38.3078 16.9056 38.3099H14.3069C14.0759 38.3097 13.8545 38.2178 13.6911 38.0545C13.5278 37.8911 13.436 37.6697 13.4357 37.4387V34.848C13.4357 34.3666 13.8256 33.9759 14.3069 33.9759H16.9056C17.1351 33.9782 17.3544 34.071 17.5159 34.2342C17.6774 34.3973 17.768 34.6175 17.768 34.8471L17.7688 37.4378ZM17.7688 30.0977C17.7689 30.3274 17.6782 30.5478 17.5165 30.711C17.3548 30.8741 17.1352 30.9668 16.9056 30.9689H14.3069C14.0759 30.9687 13.8545 30.8768 13.6911 30.7135C13.5278 30.5502 13.436 30.3287 13.4357 30.0977V27.4991C13.438 27.2696 13.5309 27.0502 13.694 26.8887C13.8571 26.7273 14.0774 26.6367 14.3069 26.6367H16.9056C17.3781 26.6367 17.768 27.0265 17.768 27.4991L17.7688 30.0977ZM17.7688 22.748C17.7689 22.9777 17.6782 23.1981 17.5165 23.3612C17.3548 23.5244 17.1352 23.6171 16.9056 23.6192H14.3069C14.0759 23.6189 13.8545 23.5271 13.6911 23.3637C13.5278 23.2004 13.436 22.979 13.4357 22.748V20.1581C13.4357 19.6768 13.8256 19.2869 14.3069 19.2869H16.9056C17.1351 19.2893 17.3544 19.3821 17.5159 19.5452C17.6774 19.7083 17.768 19.9286 17.768 20.1581L17.7688 22.748ZM25.6809 37.4378C25.6809 37.6689 25.5892 37.8906 25.4258 38.0542C25.2624 38.2177 25.0409 38.3097 24.8097 38.3099H22.2199C21.9887 38.3099 21.7671 38.2181 21.6035 38.0548C21.44 37.8914 21.348 37.6698 21.3478 37.4387V34.848C21.3478 34.3666 21.7385 33.9759 22.2199 33.9759H24.8088C25.2902 33.9759 25.6809 34.3666 25.6809 34.8471V37.4378ZM25.6809 30.0977C25.6807 30.3287 25.5888 30.5502 25.4255 30.7135C25.2622 30.8768 25.0407 30.9687 24.8097 30.9689H22.2199C21.9887 30.9689 21.7671 30.8772 21.6035 30.7138C21.44 30.5505 21.348 30.3289 21.3478 30.0977V27.4991C21.3501 27.2694 21.4431 27.0499 21.6064 26.8884C21.7697 26.7269 21.9902 26.6364 22.2199 26.6367H24.8088C25.0385 26.6364 25.259 26.7269 25.4223 26.8884C25.5857 27.0499 25.6786 27.2694 25.6809 27.4991V30.0977ZM25.6809 22.748C25.6807 22.979 25.5888 23.2004 25.4255 23.3637C25.2622 23.5271 25.0407 23.6189 24.8097 23.6192H22.2199C21.9887 23.6192 21.7671 23.5274 21.6035 23.3641C21.44 23.2007 21.348 22.9791 21.3478 22.748V20.1581C21.3478 19.6768 21.7385 19.2869 22.2199 19.2869H24.8088C25.2902 19.2869 25.6809 19.6768 25.6809 20.1581V22.748ZM25.6809 14.5534H5.53068V6.45829H25.6809V14.5534Z" fill="url(#paint0_linear_112_499)"/>
<path d="M42.4906 23.2091C42.4913 22.2918 42.3111 21.3834 41.9604 20.5358C41.6097 19.6882 41.0953 18.918 40.4467 18.2694C39.798 17.6208 39.0279 17.1064 38.1803 16.7557C37.3327 16.4049 36.4242 16.2248 35.5069 16.2255C34.5898 16.2255 33.6816 16.4061 32.8342 16.7571C31.9869 17.1081 31.2169 17.6225 30.5684 18.2711C29.9199 18.9196 29.4054 19.6895 29.0544 20.5369C28.7035 21.3842 28.5228 22.2924 28.5228 23.2096C28.5228 24.1268 28.7035 25.0349 29.0544 25.8823C29.4054 26.7296 29.9199 27.4996 30.5684 28.1481C31.2169 28.7966 31.9869 29.3111 32.8342 29.6621C33.6816 30.0131 34.5898 30.1937 35.5069 30.1937C36.4241 30.1937 37.3323 30.013 38.1797 29.662C39.027 29.311 39.7969 28.7965 40.4454 28.1479C41.0939 27.4993 41.6083 26.7294 41.9593 25.882C42.3102 25.0346 42.4907 24.1263 42.4906 23.2091ZM35.5096 22.4937C36.0954 22.4942 36.6571 22.727 37.0715 23.1411C37.4859 23.5551 37.7192 24.1167 37.7201 24.7025C37.7186 25.1678 37.57 25.6208 37.2954 25.9965C37.0208 26.3722 36.6345 26.6515 36.1916 26.7943V27.2316C36.1852 27.4081 36.1106 27.5753 35.9835 27.698C35.8564 27.8206 35.6866 27.8891 35.51 27.8891C35.3334 27.8891 35.1636 27.8206 35.0365 27.698C34.9094 27.5753 34.8348 27.4081 34.8284 27.2316V26.7943C34.3859 26.6514 33.9998 26.3722 33.7254 25.9967C33.451 25.6211 33.3024 25.1685 33.3008 24.7034C33.3096 24.5287 33.3853 24.3642 33.512 24.2437C33.6388 24.1232 33.807 24.056 33.9819 24.056C34.1568 24.056 34.325 24.1232 34.4517 24.2437C34.5785 24.3642 34.6541 24.5287 34.663 24.7034C34.663 24.871 34.7127 25.0349 34.8059 25.1743C34.899 25.3137 35.0314 25.4223 35.1863 25.4864C35.3412 25.5505 35.5117 25.5672 35.6761 25.5345C35.8405 25.5017 35.9915 25.4209 36.11 25.3023C36.2285 25.1837 36.3091 25.0326 36.3417 24.8682C36.3743 24.7037 36.3574 24.5333 36.2931 24.3785C36.2288 24.2236 36.1201 24.0913 35.9806 23.9983C35.8411 23.9053 35.6772 23.8558 35.5096 23.8559C34.9239 23.855 34.3625 23.6219 33.9484 23.2077C33.5344 22.7934 33.3015 22.2319 33.3008 21.6463C33.3008 20.6668 33.9449 19.8449 34.8284 19.5554V19.133C34.8284 18.9522 34.9002 18.7789 35.0281 18.6511C35.1559 18.5232 35.3292 18.4514 35.51 18.4514C35.6908 18.4514 35.8641 18.5232 35.9919 18.6511C36.1198 18.7789 36.1916 18.9522 36.1916 19.133V19.5554C36.6344 19.698 37.0207 19.9771 37.2953 20.3527C37.5699 20.7282 37.7186 21.181 37.7201 21.6463C37.7138 21.8228 37.6392 21.99 37.5121 22.1126C37.3849 22.2352 37.2152 22.3038 37.0386 22.3038C36.8619 22.3038 36.6922 22.2352 36.5651 22.1126C36.4379 21.99 36.3633 21.8228 36.357 21.6463C36.3499 21.4264 36.2576 21.2178 36.0995 21.0648C35.9414 20.9117 35.73 20.8261 35.51 20.8261C35.29 20.8261 35.0786 20.9117 34.9205 21.0648C34.7624 21.2178 34.6701 21.4264 34.663 21.6463C34.663 22.1135 35.0432 22.4937 35.5096 22.4937ZM41.6053 36.8747H29.4085C28.5725 36.8747 27.894 37.5523 27.894 38.3883V40.678C27.894 41.514 28.5716 42.1925 29.4076 42.1925H41.6062C42.4422 42.1925 43.1207 41.5149 43.1207 40.6789V38.3883C43.1207 37.5523 42.4422 36.8747 41.6053 36.8747Z" fill="url(#paint1_linear_112_499)"/>
<path d="M41.6053 30.1927H29.4085C28.5725 30.1927 27.894 30.8712 27.894 31.7072V33.997C27.894 34.833 28.5716 35.5115 29.4076 35.5115H41.6062C42.4422 35.5115 43.1207 34.8339 43.1207 33.9979V31.7063C43.1207 30.8703 42.4422 30.1927 41.6053 30.1927Z" fill="url(#paint2_linear_112_499)"/>
<defs>
<linearGradient id="paint0_linear_112_499" x1="15.6062" y1="1.8075" x2="15.6062" y2="41.6803" gradientUnits="userSpaceOnUse">
<stop stop-color="#5F357E"/>
<stop offset="1" stop-color="#AC60E4"/>
</linearGradient>
<linearGradient id="paint1_linear_112_499" x1="35.5074" y1="16.2255" x2="35.5074" y2="42.1925" gradientUnits="userSpaceOnUse">
<stop stop-color="#5F357E"/>
<stop offset="1" stop-color="#AC60E4"/>
</linearGradient>
<linearGradient id="paint2_linear_112_499" x1="35.5074" y1="30.1927" x2="35.5074" y2="35.5115" gradientUnits="userSpaceOnUse">
<stop stop-color="#5F357E"/>
<stop offset="1" stop-color="#AC60E4"/>
</linearGradient>
</defs>
</svg>
