<svg width="70" height="45" viewBox="0 0 70 45" fill="none" xmlns="http://www.w3.org/2000/svg">
<path d="M43.5488 21.5745L64.8526 6.70552C63.0283 2.87661 58.3949 -0.00112915 54.1812 0.000216215C51.547 -0.0145828 44.36 0.732094 39.6876 1.69269C35.0017 2.54834 28.0515 4.54755 25.6151 5.54716C21.7135 7.12258 18.4846 11.5246 18.229 15.7585L43.5488 21.5745Z" fill="url(#paint0_linear_112_492)"/>
<path d="M68.0912 17.4118C67.6304 15.0132 67.0125 12.6474 66.2413 10.3298L45.5819 24.7495C45.1897 25.022 44.745 25.2099 44.2762 25.3011C43.8074 25.3924 43.3247 25.385 42.8589 25.2795L18.2979 19.6398C18.45 22.0792 18.7619 24.5061 19.2316 26.9047C20.1491 31.5826 21.3277 34.9097 22.3407 37.3273C24.0641 41.2974 28.8254 44.3232 33.1427 44.3232C35.7769 44.3366 42.9638 43.59 47.6349 42.6307C52.3222 41.7737 59.2724 39.7745 61.7088 38.7762C65.7126 37.1618 68.9967 32.5781 69.1083 28.2514C69.1446 25.6186 68.9926 22.0964 68.0912 17.4118ZM2.76701 34.5316C2.13189 34.5306 1.51988 34.2932 1.05022 33.8656C0.580569 33.4381 0.286909 32.851 0.226455 32.2187C0.166001 31.5865 0.343084 30.9544 0.723204 30.4456C1.10332 29.9367 1.65925 29.5877 2.28268 29.4663L9.8961 27.9864C10.5572 27.8678 11.2384 28.0142 11.7924 28.3939C12.3465 28.7736 12.7288 29.356 12.8568 30.0154C12.9848 30.6747 12.8481 31.3579 12.4763 31.9173C12.1046 32.4767 11.5276 32.8673 10.8701 33.0046L3.25807 34.4845C3.09629 34.516 2.93183 34.5318 2.76701 34.5316ZM6.71162 22.1354C6.07638 22.1347 5.46415 21.8976 4.99424 21.4701C4.52433 21.0427 4.23042 20.4555 4.16979 19.8232C4.10916 19.1909 4.28615 18.5586 4.66627 18.0496C5.04639 17.5407 5.60241 17.1915 6.22595 17.0701L11.524 16.0423C12.1851 15.9237 12.8663 16.07 13.4203 16.4497C13.9744 16.8294 14.3567 17.4119 14.4847 18.0712C14.6126 18.7306 14.476 19.4138 14.1042 19.9732C13.7325 20.5325 13.1555 20.9231 12.498 21.0605L7.20672 22.0883C7.04363 22.1202 6.8778 22.136 6.71162 22.1354ZM8.74716 44.9999C8.11203 44.9989 7.50003 44.7615 7.03037 44.3339C6.56072 43.9064 6.26706 43.3193 6.2066 42.687C6.14615 42.0548 6.32323 41.4227 6.70335 40.9138C7.08347 40.405 7.6394 40.0559 8.26283 39.9346L15.8763 38.4547C16.2078 38.3854 16.5499 38.3827 16.8825 38.4468C17.2151 38.5109 17.5317 38.6405 17.8138 38.8279C18.096 39.0154 18.338 39.2572 18.5259 39.539C18.7138 39.8209 18.8438 40.1373 18.9083 40.4698C18.9729 40.8023 18.9707 41.1444 18.9019 41.4761C18.8331 41.8078 18.699 42.1225 18.5076 42.4019C18.3161 42.6813 18.0709 42.9199 17.7864 43.1038C17.5019 43.2876 17.1837 43.4131 16.8503 43.4729L9.23822 44.9528C9.07643 44.9843 8.91198 45.0001 8.74716 44.9999Z" fill="url(#paint1_linear_112_492)"/>
<defs>
<linearGradient id="paint0_linear_112_492" x1="41.5408" y1="0" x2="41.5408" y2="21.5745" gradientUnits="userSpaceOnUse">
<stop stop-color="#5F357E"/>
<stop offset="1" stop-color="#AC60E4"/>
</linearGradient>
<linearGradient id="paint1_linear_112_492" x1="34.664" y1="10.3298" x2="34.664" y2="44.9999" gradientUnits="userSpaceOnUse">
<stop stop-color="#5F357E"/>
<stop offset="1" stop-color="#AC60E4"/>
</linearGradient>
</defs>
</svg>
