<svg width="130" height="42" viewBox="0 0 130 42" fill="none" xmlns="http://www.w3.org/2000/svg">
<path d="M3.31612 32V9.6H6.29212L19.7001 25.6H19.7641V9.6H23.1561V32H20.5001L6.74012 15.488H6.67612V32H3.31612ZM38.6714 32.32C36.41 32.32 34.4367 31.84 32.7514 30.88C31.066 29.8987 29.754 28.544 28.8154 26.816C27.8767 25.0667 27.4074 23.0507 27.4074 20.768C27.4074 18.5067 27.8767 16.512 28.8154 14.784C29.7754 13.056 31.1087 11.712 32.8154 10.752C34.522 9.77067 36.474 9.28 38.6714 9.28C40.954 9.28 42.938 9.77067 44.6234 10.752C46.33 11.712 47.6527 13.0667 48.5914 14.816C49.53 16.544 49.9994 18.5387 49.9994 20.8C49.9994 23.0613 49.5194 25.0667 48.5594 26.816C47.5994 28.544 46.266 29.8987 44.5594 30.88C42.874 31.84 40.9114 32.32 38.6714 32.32ZM38.6714 29.184C40.2287 29.184 41.594 28.8533 42.7674 28.192C43.9407 27.5093 44.858 26.5387 45.5194 25.28C46.1807 24.0213 46.5114 22.5173 46.5114 20.768C46.5114 19.04 46.1807 17.5573 45.5194 16.32C44.8794 15.0613 43.9727 14.1013 42.7994 13.44C41.626 12.7573 40.25 12.416 38.6714 12.416C37.1567 12.416 35.8127 12.7573 34.6394 13.44C33.466 14.1013 32.5487 15.0613 31.8874 16.32C31.226 17.5573 30.8954 19.0507 30.8954 20.8C30.8954 22.528 31.2154 24.0213 31.8554 25.28C32.5167 26.5387 33.434 27.5093 34.6074 28.192C35.7807 28.8533 37.1354 29.184 38.6714 29.184ZM64.4139 32.32C62.1525 32.32 60.1792 31.84 58.4939 30.88C56.8085 29.8987 55.4965 28.544 54.5579 26.816C53.6192 25.0667 53.1499 23.0507 53.1499 20.768C53.1499 18.5067 53.6192 16.512 54.5579 14.784C55.5179 13.056 56.8512 11.712 58.5579 10.752C60.2645 9.77067 62.2165 9.28 64.4139 9.28C66.6965 9.28 68.6805 9.77067 70.3659 10.752C72.0725 11.712 73.3952 13.0667 74.3339 14.816C75.2725 16.544 75.7419 18.5387 75.7419 20.8C75.7419 23.0613 75.2619 25.0667 74.3019 26.816C73.3419 28.544 72.0085 29.8987 70.3019 30.88C68.6165 31.84 66.6539 32.32 64.4139 32.32ZM64.4139 29.184C65.9712 29.184 67.3365 28.8533 68.5099 28.192C69.6832 27.5093 70.6005 26.5387 71.2619 25.28C71.9232 24.0213 72.2539 22.5173 72.2539 20.768C72.2539 19.04 71.9232 17.5573 71.2619 16.32C70.6219 15.0613 69.7152 14.1013 68.5419 13.44C67.3685 12.7573 65.9925 12.416 64.4139 12.416C62.8992 12.416 61.5552 12.7573 60.3819 13.44C59.2085 14.1013 58.2912 15.0613 57.6299 16.32C56.9685 17.5573 56.6379 19.0507 56.6379 20.8C56.6379 22.528 56.9579 24.0213 57.5979 25.28C58.2592 26.5387 59.1765 27.5093 60.3499 28.192C61.5232 28.8533 62.8779 29.184 64.4139 29.184ZM93.5164 32L85.9004 22.432H81.8364L82.3484 19.456H85.7084L93.1964 9.6H97.3244L88.7484 20.704L97.8684 32H93.5164ZM80.0124 32V9.6H83.4044V32H80.0124ZM99.3744 32V29.664L112.526 12.608H99.6624V9.6H117.038V12.032L103.918 28.992H117.262V32H99.3744Z" fill="black"/>
<circle cx="125.5" cy="27.5" r="4.5" fill="#F21170"/>
</svg>
